<svg width="197" height="59" viewBox="0 0 197 59" fill="none" xmlns="http://www.w3.org/2000/svg">
<g clip-path="url(#clip0_424_68)">
<path d="M70.6019 38.4058L63.9892 38.2645L64.0634 34.955C64.1674 30.1133 64.2267 27.6367 64.2713 26.6848C64.2787 26.484 64.3009 26.0006 64.2713 25.3461C64.2564 25.0188 64.2267 24.6842 64.1896 24.3569C64.0634 23.2265 63.9595 22.3266 63.492 21.3895C62.9131 20.2218 62.0596 19.5674 61.5995 19.2104C61.1542 18.8683 59.9815 17.9609 58.23 17.7452C56.1074 17.4849 54.4227 18.422 53.7919 18.8311C53.0201 19.3368 51.9588 20.259 51.2982 21.7613C50.9717 22.5125 50.4744 24.0446 50.8826 25.8593C51.224 27.369 52.033 28.3433 52.4708 28.8713C52.8122 29.2878 53.7771 30.3141 55.2688 30.9984C55.7141 31.2066 56.1965 31.3702 56.6863 31.4892C57.4137 31.6677 58.1558 31.7495 58.9054 31.7198L62.208 31.6157L62.4158 38.2348L59.1132 38.3389C57.7625 38.3835 56.4117 38.2422 55.1055 37.915C54.2149 37.6919 53.3466 37.3944 52.5228 37.0151C49.8881 35.8103 48.1811 34.0476 47.3944 33.1031C46.7784 32.3594 45.1308 30.3811 44.4406 27.3095C43.6168 23.643 44.5965 20.5863 45.257 19.0914C46.5706 16.1016 48.6561 14.2869 50.1776 13.2903C51.7138 12.2863 54.9051 10.665 59.0316 11.1707C62.5791 11.6021 64.8873 13.3796 65.6368 13.9597C66.3271 14.4877 68.1528 15.9008 69.407 18.4295C70.3941 20.4078 70.5945 22.1778 70.7578 23.5983C70.8097 24.0743 70.8542 24.5652 70.8691 25.0486C70.9136 26.0006 70.8765 26.7294 70.8691 26.9674C70.8171 28.1127 70.7355 31.9132 70.6613 35.0963L70.6019 38.4058Z" fill="#497B62"/>
<path d="M0 37.9373V11.7732H6.99118L7.08767 14.2498C7.89662 13.0524 8.89855 12.1673 10.0934 11.6021C11.2883 11.0369 12.6836 10.7543 14.2644 10.7543C16.0456 10.7543 17.6412 11.1708 19.0662 11.9963C20.4911 12.8218 21.5599 13.9672 22.2723 15.4248C22.495 15.0009 22.7547 14.6142 23.0516 14.2572C23.3411 13.9002 23.6602 13.5581 23.9942 13.2383C24.3356 12.9185 24.7066 12.621 25.1074 12.3607C25.5082 12.1004 25.9312 11.8773 26.3691 11.6839C26.807 11.4906 27.2523 11.3195 27.705 11.1708C28.1577 11.022 28.6253 10.9179 29.1151 10.851C29.5975 10.784 30.1022 10.7543 30.6217 10.7543C32.4622 10.7543 34.1173 11.2079 35.5719 12.1153C37.0266 13.0226 38.1621 14.2944 38.971 15.9306C39.78 17.5668 40.1808 19.4261 40.1808 21.5011V37.9373H32.7591L32.6552 23.0108C32.6552 21.4862 32.2767 20.3185 31.5123 19.5079C30.7553 18.6972 29.6791 18.2733 28.2839 18.2436C25.3746 18.2436 23.9199 19.8351 23.9199 23.0108V37.9373L16.1569 37.8406V23.0108C16.1569 21.3895 15.8007 20.1921 15.0882 19.4112C14.3757 18.6303 13.3218 18.2436 11.934 18.2436C11.2215 18.2436 10.5833 18.3402 10.0192 18.5336C9.45517 18.727 8.96534 19.0096 8.56457 19.3814C8.15638 19.7533 7.84467 20.2516 7.62202 20.8615C7.39195 21.4787 7.28063 22.1927 7.28063 23.0034V37.9373H0Z" fill="#497B62"/>
<path d="M113.306 11.8252V14.4059C113.662 13.982 114.026 13.6027 114.397 13.2606C114.768 12.9185 115.154 12.621 115.562 12.3607C115.963 12.1004 116.386 11.8772 116.824 11.6839C117.262 11.4905 117.715 11.3269 118.182 11.2005C118.65 11.074 119.14 10.9773 119.637 10.9104C120.142 10.8435 120.661 10.8137 121.21 10.8137C123.993 10.8137 126.25 11.8252 127.979 13.8555C129.708 15.8785 130.576 18.4666 130.576 21.6126V37.8555H122.954V23.0108C122.954 21.4564 122.561 20.259 121.767 19.4111C120.973 18.5707 119.867 18.1468 118.442 18.1468C117.73 18.1468 117.076 18.2509 116.475 18.4592C115.874 18.6674 115.355 18.9872 114.902 19.4111C114.449 19.8351 114.1 20.3705 113.855 21.0176C113.611 21.6646 113.492 22.3935 113.492 23.2041V37.8406H105.974V11.7285L113.306 11.8252Z" fill="#497B62"/>
<path d="M137.263 8.80567C136.684 8.58255 136.18 8.26275 135.757 7.85371C135.333 7.4521 135.014 6.96124 134.784 6.39601C134.554 5.83078 134.443 5.20606 134.443 4.52183C134.443 3.19057 134.881 2.10473 135.757 1.26433C136.632 0.423922 137.76 0 139.156 0C139.705 0 140.224 0.0743722 140.707 0.215679C141.189 0.364424 141.627 0.572666 142.02 0.847843C142.406 1.12302 142.748 1.44282 143.037 1.79981C143.327 2.15679 143.549 2.57328 143.69 3.04182C143.839 3.51037 143.905 4.00866 143.905 4.52183C143.905 5.88284 143.46 6.99099 142.57 7.85371C141.679 8.71642 140.536 9.14034 139.148 9.14034C138.473 9.14778 137.842 9.03622 137.263 8.80567ZM143.082 11.5798V37.8406H135.267V11.5798H143.082Z" fill="#497B62"/>
<path d="M159.521 11.9665L166.364 11.8698L166.312 19.2624L159.855 19.3144V37.8406H152.478L152.426 19.4632H147.624V12.1673L152.285 12.0706V9.83198C152.285 6.97609 153.554 4.70774 156.092 3.02693C158.63 1.33868 161.985 0.758575 166.163 1.27918L166.111 8.03961C161.747 8.03961 159.558 9.02876 159.558 11.0071L159.521 11.9665Z" fill="#497B62"/>
<path d="M186.906 41.6261C186.617 41.6782 186.231 41.6187 185.763 41.4551C185.296 41.2915 184.791 41.0609 184.257 40.7485C183.723 40.4436 183.151 40.0346 182.535 39.5363C181.919 39.0305 181.34 38.4728 180.791 37.8555L169.488 12.3235H177.978L184.383 27.3987L189.43 12.4722L197 12.5689L187.441 41.2617C187.374 41.4551 187.196 41.5741 186.906 41.6261ZM192.725 25.2642L184.279 50.7962L176.175 50.8929L185.296 24.6841L192.725 25.2642Z" fill="#497B62"/>
<path d="M97.2827 37.2828C96.83 36.6283 96.3698 36.0779 95.9468 35.6168C99.3311 33.1849 101.543 29.2134 101.543 24.7139C101.543 17.3138 95.546 11.3046 88.1615 11.3046C80.7695 11.3046 74.7803 17.3138 74.7803 24.7139C74.7803 31.7197 80.1239 37.4538 86.9518 38.0711C87.8795 38.2124 89.8239 38.6958 91.3528 40.4436C92.7703 42.0649 93.0227 43.8498 93.082 44.4225C93.2824 46.3785 92.6219 47.8436 92.3399 48.4089C91.3602 50.3351 89.8091 51.2276 89.245 51.5176C88.681 51.8077 87.2709 52.4473 85.4081 52.2985C85.0073 52.2613 83.5675 52.1126 82.0757 51.1458C81.5711 50.826 81.1777 50.4764 80.9105 50.2161C79.3446 51.7854 77.7712 53.3472 76.1978 54.9239C76.9103 55.556 77.2665 55.8758 77.2665 55.8758C77.2665 55.8758 81.0812 58.583 85.1854 58.9548C87.5529 59.1705 89.4157 58.5607 90.3509 58.2409C91.6274 57.8021 94.5515 56.5972 96.8671 53.6C97.4089 52.8935 100.118 49.2493 99.717 44.1101C99.6724 43.3813 99.3756 40.3395 97.2827 37.2828ZM81.9422 24.7139C81.9422 21.2853 84.7327 18.4815 88.1541 18.4815C91.5754 18.4815 94.366 21.2779 94.366 24.7139C94.366 28.1499 91.5754 30.9388 88.1541 30.9388C84.7327 30.9463 81.9422 28.1499 81.9422 24.7139Z" fill="#497B62"/>
<path d="M95.5015 11.8401C97.958 11.8475 100.415 11.855 102.871 11.8624C102.856 14.3762 102.841 16.89 102.819 19.4037C102.366 18.2882 101.468 16.4809 99.717 14.7406C98.1733 13.2011 96.5702 12.3235 95.5015 11.8401Z" fill="#497B62"/>
<path d="M65.0654 11.8401C67.522 11.8475 69.9786 11.855 72.4351 11.8624C72.4203 14.3762 72.4054 16.89 72.3832 19.4037C71.9304 18.2882 71.0324 16.4809 69.2809 14.7406C67.7372 13.2011 66.1341 12.3235 65.0654 11.8401Z" fill="#497B62"/>
</g>
<defs>
<clipPath id="clip0_424_68">
<rect width="197" height="59" fill="white"/>
</clipPath>
</defs>
</svg>
